<svg width="16" height="16" viewBox="0 0 16 16" fill="none" xmlns="http://www.w3.org/2000/svg">
<g clip-path="url(#clip0_213_43)">
<path d="M3.72448 5.14722H0.512459C0.369904 5.14722 0.254395 5.26278 0.254395 5.40528V15.7241C0.254395 15.8667 0.369904 15.9822 0.512459 15.9822H3.72448C3.86704 15.9822 3.98255 15.8667 3.98255 15.7241V5.40528C3.98255 5.26278 3.86704 5.14722 3.72448 5.14722Z" fill="#F77100"/>
<path d="M2.11954 0.0175781C0.950813 0.0175781 0 0.967359 0 2.13479C0 3.30274 0.950813 4.25288 2.11954 4.25288C3.28733 4.25288 4.23737 3.30269 4.23737 2.13479C4.23742 0.967359 3.28733 0.0175781 2.11954 0.0175781Z" fill="#F77100"/>
<path d="M11.8943 4.89087C10.6043 4.89087 9.65061 5.44545 9.07219 6.07559V5.4054C9.07219 5.26289 8.95668 5.14733 8.81412 5.14733H5.73804C5.59549 5.14733 5.47998 5.26289 5.47998 5.4054V15.7243C5.47998 15.8668 5.59549 15.9823 5.73804 15.9823H8.94305C9.08561 15.9823 9.20112 15.8668 9.20112 15.7243V10.6188C9.20112 8.8984 9.66842 8.22816 10.8677 8.22816C12.1738 8.22816 12.2776 9.30264 12.2776 10.7073V15.7243C12.2776 15.8669 12.3931 15.9824 12.5357 15.9824H15.7419C15.8844 15.9824 15.9999 15.8669 15.9999 15.7243V10.0642C15.9999 7.50604 15.5121 4.89087 11.8943 4.89087Z" fill="#F77100"/>
</g>
<defs>
<clipPath id="clip0_213_43">
<rect width="16" height="16" fill="white"/>
</clipPath>
</defs>
</svg>
