<svg width="126" height="49" viewBox="0 0 126 49" fill="none" xmlns="http://www.w3.org/2000/svg">
<path d="M4.97963 20.7308H2.56494V5.64632H9.22226C9.74882 5.64632 10.2152 5.66894 10.6214 5.71417C11.0276 5.7594 11.3887 5.82724 11.7046 5.9177C12.0206 6.00817 12.3064 6.13632 12.5622 6.30217C12.818 6.45294 13.0662 6.6414 13.3069 6.86755C14.1645 7.71186 14.5932 8.88786 14.5932 10.3956C14.5932 11.2549 14.4428 12.0314 14.1419 12.7249C13.856 13.4034 13.4498 13.9537 12.9233 14.3759C12.5171 14.6925 11.9905 14.9186 11.3436 15.0543C10.7117 15.19 9.85414 15.2579 8.77091 15.2579H4.97963V20.7308ZM8.92888 13.3356C9.54572 13.3356 10.0347 13.2828 10.3957 13.1772C10.7719 13.0717 11.0803 12.8908 11.321 12.6345C11.5316 12.4083 11.6971 12.0917 11.8175 11.6846C11.9529 11.2625 12.0206 10.8177 12.0206 10.3503C12.0206 9.88294 11.9454 9.46078 11.7949 9.08386C11.6595 8.69186 11.4639 8.37524 11.2082 8.13401C10.9975 7.92294 10.7042 7.7797 10.328 7.70432C9.96697 7.61386 9.47049 7.56863 8.83861 7.56863H4.97963V13.3356H8.92888ZM19.1503 20.7308H16.7355V5.64632H23.596C24.6793 5.64632 25.5519 5.7217 26.2138 5.87247C26.8758 6.00817 27.4249 6.22678 27.8612 6.52832C28.3427 6.89017 28.7188 7.36509 28.9896 7.95309C29.2754 8.52601 29.4184 9.1517 29.4184 9.83017C29.4184 10.4785 29.3055 11.074 29.0799 11.6168C28.8542 12.1445 28.5232 12.5817 28.0869 12.9285C27.8311 13.1396 27.5754 13.3054 27.3196 13.426C27.0639 13.5466 26.7178 13.6672 26.2815 13.7879C26.778 14.014 27.1917 14.2552 27.5227 14.5116C27.8687 14.7528 28.1471 15.0468 28.3577 15.3936C28.5683 15.7403 28.7263 16.1625 28.8316 16.66C28.9369 17.1576 29.0122 17.7531 29.0573 18.4466C29.0874 18.8989 29.1099 19.2457 29.125 19.4869C29.14 19.7282 29.1626 19.9242 29.1927 20.0749C29.2228 20.2106 29.2529 20.3237 29.283 20.4142C29.3281 20.5046 29.3883 20.6102 29.4635 20.7308H26.9811C26.936 20.6252 26.8984 20.5423 26.8683 20.482C26.8532 20.4217 26.8307 20.2936 26.8006 20.0976C26.7705 19.7206 26.7479 19.4342 26.7329 19.2382C26.7178 19.0422 26.6953 18.816 26.6652 18.5597C26.5899 17.7757 26.447 17.1123 26.2364 16.5696C26.0258 16.0268 25.7173 15.5971 25.3111 15.2805C24.92 14.9488 24.416 14.7151 23.7991 14.5794C23.1823 14.4286 22.4301 14.3532 21.5424 14.3532H19.1503V20.7308ZM23.4381 12.4309C24.1452 12.4309 24.6943 12.3932 25.0855 12.3179C25.4917 12.2425 25.8076 12.1143 26.0333 11.9334C26.5899 11.4811 26.8683 10.8328 26.8683 9.98847C26.8683 9.50601 26.778 9.07632 26.5975 8.6994C26.432 8.32247 26.1837 8.04355 25.8528 7.86263C25.6421 7.75709 25.3563 7.6817 24.9952 7.63647C24.6492 7.59124 24.1301 7.56863 23.4381 7.56863H19.1503V12.4309H23.4381ZM38.5336 5.42017C43.2276 5.42017 45.5746 7.99832 45.5746 13.1546C45.5746 14.6322 45.394 15.8685 45.033 16.8636C44.6869 17.8436 44.1378 18.6577 43.3856 19.306C42.0767 20.4066 40.339 20.9569 38.1725 20.9569C36.8787 20.9569 35.7428 20.7609 34.7649 20.3689C33.802 19.9769 33.0347 19.404 32.463 18.6502C32.2374 18.3637 32.0343 18.0169 31.8537 17.6099C31.6732 17.2028 31.5152 16.7656 31.3798 16.2982C31.2595 15.8157 31.1617 15.3182 31.0865 14.8056C31.0263 14.2779 30.9962 13.7502 30.9962 13.2225C30.9962 12.0616 31.1542 10.9836 31.4701 9.98847C31.786 8.97832 32.2148 8.1717 32.7564 7.56863C33.4184 6.82986 34.2158 6.28709 35.1485 5.94032C36.0813 5.59355 37.2097 5.42017 38.5336 5.42017ZM38.3079 7.34247C37.2849 7.34247 36.4198 7.53847 35.7127 7.93047C35.0056 8.32247 34.479 8.88786 34.133 9.62663C33.9525 10.0337 33.8096 10.5539 33.7042 11.1871C33.5989 11.8052 33.5463 12.4686 33.5463 13.1772C33.5463 15.2277 33.9224 16.7203 34.6746 17.6551C35.4419 18.5748 36.6605 19.0346 38.3305 19.0346C40.4669 19.0346 41.866 18.2582 42.528 16.7052C42.6785 16.3585 42.7988 15.876 42.8891 15.2579C42.9793 14.6246 43.0245 13.9688 43.0245 13.2903C43.0245 12.3556 42.9493 11.5188 42.7988 10.78C42.6484 10.0262 42.4302 9.4457 42.1444 9.03863C41.3921 7.90786 40.1133 7.34247 38.3079 7.34247ZM46.4517 18.8085H49.3628C50.2806 18.8085 51.0103 18.7632 51.5519 18.6728C52.1085 18.5823 52.5298 18.3863 52.8156 18.0848C53.1015 17.7832 53.282 17.346 53.3572 16.7731C53.4475 16.2002 53.4926 15.4312 53.4926 14.4663V5.64632H55.9073V14.4663C55.9073 15.2202 55.8848 15.8609 55.8396 16.3886C55.8095 16.9012 55.7418 17.346 55.6365 17.7229C55.5312 18.0848 55.3958 18.4014 55.2303 18.6728C55.0648 18.9291 54.8467 19.1779 54.5759 19.4191C54.29 19.6754 53.9966 19.8865 53.6957 20.0523C53.3948 20.2182 53.0413 20.3539 52.6351 20.4594C52.2439 20.5649 51.7851 20.6403 51.2585 20.6856C50.7319 20.7157 50.1 20.7308 49.3628 20.7308H46.4517V18.8085ZM69.748 7.56863H65.3699C64.8283 7.56863 64.3544 7.59878 63.9482 7.65909C63.542 7.7194 63.1809 7.82494 62.865 7.9757C62.5641 8.1114 62.3008 8.29232 62.0751 8.51847C61.8494 8.74463 61.6388 9.02355 61.4432 9.35524C61.3229 9.55124 61.2251 9.74724 61.1499 9.94324C61.0746 10.1242 61.0069 10.3202 60.9468 10.5312C60.9016 10.7423 60.864 10.9836 60.8339 11.2549C60.8038 11.5263 60.7813 11.8354 60.7662 12.1822H69.748V14.1045H60.7437C60.7587 15.2352 60.9994 16.2152 61.4658 17.0445C61.8419 17.6928 62.3083 18.1526 62.865 18.424C63.4367 18.6803 64.2265 18.8085 65.2345 18.8085H69.748V20.7308H64.8058C64.1438 20.7308 63.5495 20.6931 63.0229 20.6177C62.4964 20.5423 62.0225 20.4217 61.6012 20.2559C61.195 20.09 60.8189 19.8789 60.4729 19.6226C60.1419 19.3512 59.8335 19.0196 59.5476 18.6276C59.0361 17.9491 58.6675 17.2103 58.4418 16.4112C58.2161 15.5971 58.1033 14.6246 58.1033 13.4939C58.1033 10.4332 58.9834 8.2094 60.7437 6.82232C61.2702 6.41524 61.9096 6.12124 62.6619 5.94032C63.4292 5.74432 64.377 5.64632 65.5053 5.64632H69.748V7.56863ZM83.6651 20.7308H78.9937C78.2866 20.7308 77.6547 20.7006 77.0981 20.6403C76.5565 20.58 76.06 20.482 75.6087 20.3463C75.1724 20.2106 74.7812 20.0372 74.4352 19.8262C74.0891 19.6 73.7657 19.3286 73.4648 19.012C72.863 18.3788 72.3891 17.5646 72.043 16.5696C71.7121 15.5594 71.5466 14.4663 71.5466 13.2903C71.5466 12.5817 71.6067 11.8957 71.7271 11.2323C71.8625 10.5689 72.043 9.95078 72.2687 9.37786C72.5094 8.80494 72.7953 8.29232 73.1263 7.84001C73.4723 7.37263 73.8484 6.98817 74.2546 6.68663C74.7661 6.32478 75.3905 6.06094 76.1277 5.89509C76.8649 5.72924 77.7751 5.64632 78.8583 5.64632H83.6651V7.56863H78.9937C78.4672 7.56863 78.0083 7.59124 77.6171 7.63647C77.241 7.66663 76.91 7.73447 76.6242 7.84001C76.3383 7.93047 76.0901 8.05109 75.8795 8.20186C75.6688 8.35263 75.4733 8.54109 75.2927 8.76724C74.9166 9.2497 74.6232 9.89801 74.4126 10.7122C74.202 11.5263 74.0966 12.4083 74.0966 13.3582C74.0966 14.308 74.217 15.1523 74.4577 15.8911C74.6984 16.6299 75.037 17.2405 75.4733 17.7229C75.6688 17.934 75.8719 18.1074 76.0826 18.2431C76.3082 18.3788 76.564 18.4919 76.8498 18.5823C77.1507 18.6577 77.4893 18.718 77.8654 18.7632C78.2415 18.7934 78.6853 18.8085 79.1968 18.8085H83.6651V20.7308ZM84.5107 7.56863V5.64632H97.3288V7.56863H92.1384V20.7308H89.7237V7.56863H84.5107ZM104.69 5.64632H107.105V20.7308H104.69V5.64632ZM124.324 20.7308H119.991C119.916 20.7308 119.75 20.7308 119.494 20.7308C119.254 20.7308 118.945 20.7383 118.569 20.7534H117.508C116.816 20.7534 116.199 20.7308 115.658 20.6856C115.131 20.6403 114.65 20.5649 114.214 20.4594C113.792 20.3388 113.401 20.1956 113.04 20.0297C112.694 19.8639 112.363 19.6528 112.047 19.3965C111.22 18.7331 110.58 17.8812 110.129 16.8409C109.693 15.8006 109.474 14.6322 109.474 13.3356C109.474 12.0992 109.64 10.9911 109.971 10.0111C110.317 9.03109 110.806 8.20186 111.438 7.5234C112.07 6.84494 112.844 6.32478 113.762 5.96294C114.68 5.60109 115.718 5.42017 116.876 5.42017C119.133 5.42017 120.871 6.06847 122.089 7.36509C123.323 8.64663 123.94 10.4785 123.94 12.8606C123.94 13.5391 123.895 14.1572 123.805 14.7151C123.729 15.2579 123.594 15.7705 123.398 16.2529C123.218 16.7203 122.977 17.1651 122.676 17.5872C122.39 17.9943 122.037 18.4014 121.616 18.8085H124.324V20.7308ZM116.719 7.34247C115.951 7.34247 115.244 7.47817 114.597 7.74955C113.95 8.02094 113.446 8.39786 113.085 8.88032C112.739 9.31755 112.476 9.91309 112.295 10.6669C112.115 11.4208 112.025 12.2726 112.025 13.2225C112.025 14.0668 112.107 14.8357 112.273 15.5292C112.453 16.2228 112.717 16.8108 113.063 17.2932C113.409 17.7908 113.92 18.1752 114.597 18.4466C115.274 18.718 116.057 18.8537 116.944 18.8537C117.787 18.8537 118.494 18.7105 119.065 18.424C119.637 18.1376 120.111 17.6777 120.487 17.0445C121.089 16.0494 121.39 14.8056 121.39 13.3129C121.39 11.2926 121.006 9.79247 120.239 8.81247C119.487 7.83247 118.313 7.34247 116.719 7.34247Z" fill="#F77100"/>
<path d="M0.94043 28.2693H125.06" stroke="#050505"/>
<path d="M0.902579 43.9493H5.23547C5.61661 43.9493 5.91751 43.9292 6.13816 43.889C6.35881 43.8489 6.54939 43.7784 6.70986 43.6779C7.13112 43.4267 7.34174 43.0046 7.34174 42.4115C7.34174 42.0295 7.2615 41.7129 7.10103 41.4616C6.95058 41.2002 6.72993 41.0244 6.43906 40.9339C6.29863 40.8938 6.11809 40.8686 5.89744 40.8586C5.67679 40.8384 5.35583 40.8284 4.93458 40.8284H4.10712C3.47524 40.8284 2.95869 40.7883 2.5575 40.7078C2.15632 40.6273 1.82533 40.4967 1.56455 40.3158C1.23356 40.0947 0.977802 39.8032 0.797265 39.4413C0.626757 39.0795 0.541504 38.6673 0.541504 38.205C0.541504 37.6321 0.666878 37.1195 0.917623 36.6672C1.1784 36.2149 1.53446 35.8581 1.9858 35.5967C2.26663 35.4459 2.59261 35.3404 2.96371 35.2801C3.34485 35.2098 3.83631 35.1746 4.4381 35.1746H8.56037V36.4561H4.4381C3.99678 36.4561 3.65577 36.4812 3.41506 36.5315C3.18436 36.5716 2.98378 36.6421 2.81327 36.7426C2.64275 36.8632 2.50235 37.0341 2.39201 37.2552C2.29172 37.4663 2.24156 37.7075 2.24156 37.9789C2.24156 38.4915 2.40706 38.8533 2.73804 39.0644C3.07905 39.2755 3.64575 39.381 4.4381 39.381H5.03989C5.48121 39.381 5.85733 39.391 6.16825 39.4112C6.48921 39.4313 6.76502 39.4664 6.99571 39.5167C7.23643 39.5569 7.43703 39.6172 7.5975 39.6976C7.76802 39.7679 7.92347 39.8584 8.06389 39.969C8.37481 40.2304 8.61553 40.567 8.78604 40.9792C8.95655 41.3913 9.0418 41.8486 9.0418 42.3512C9.0418 42.9443 8.91642 43.4569 8.66568 43.889C8.41494 44.3212 8.05387 44.6529 7.58246 44.8841C7.44203 44.9544 7.29661 45.0147 7.14616 45.065C6.99571 45.1052 6.8202 45.1404 6.61959 45.1706C6.42903 45.1907 6.20336 45.2058 5.94258 45.2158C5.69184 45.2258 5.39094 45.2309 5.03989 45.2309H0.902579V43.9493ZM20.1104 36.4561H17.1918C16.8308 36.4561 16.5148 36.4763 16.244 36.5164C15.9732 36.5565 15.7325 36.627 15.5219 36.7275C15.3213 36.8179 15.1458 36.9386 14.9953 37.0893C14.8449 37.2401 14.7044 37.4261 14.574 37.6472C14.4938 37.7778 14.4286 37.9086 14.3785 38.0392C14.3283 38.1598 14.2832 38.2904 14.2431 38.4312C14.213 38.572 14.1879 38.7327 14.1678 38.9136C14.1478 39.0946 14.1327 39.3005 14.1227 39.5318H20.1104V40.8133H14.1077C14.1177 41.5672 14.2782 42.2206 14.5891 42.7733C14.8398 43.2055 15.1508 43.5121 15.5219 43.693C15.903 43.864 16.4296 43.9493 17.1016 43.9493H20.1104V45.2309H16.8157C16.3744 45.2309 15.9782 45.2058 15.6272 45.1555C15.2761 45.1052 14.9602 45.0249 14.6794 44.9143C14.4086 44.8036 14.1578 44.663 13.9271 44.4921C13.7065 44.3112 13.5008 44.0901 13.3103 43.8287C12.9693 43.3764 12.7235 42.884 12.5731 42.3512C12.4226 41.8084 12.3474 41.1601 12.3474 40.4063C12.3474 38.3658 12.9342 36.8833 14.1077 35.9586C14.4587 35.6872 14.885 35.4912 15.3865 35.3706C15.898 35.24 16.5299 35.1746 17.2821 35.1746H20.1104V36.4561ZM25.7479 45.2309H24.1381V35.1746H28.7117C29.4339 35.1746 30.0155 35.2249 30.4569 35.3253C30.8981 35.4158 31.2642 35.5615 31.5552 35.7626C31.876 36.0038 32.1269 36.3204 32.3074 36.7124C32.4979 37.0944 32.5933 37.5115 32.5933 37.9638C32.5933 38.3959 32.518 38.793 32.3676 39.1549C32.2171 39.5067 31.9964 39.7981 31.7056 40.0293C31.5351 40.1701 31.3645 40.2806 31.1941 40.361C31.0235 40.4415 30.7928 40.5218 30.502 40.6023C30.833 40.753 31.1087 40.9138 31.3295 41.0847C31.5601 41.2455 31.7457 41.4415 31.8862 41.6727C32.0265 41.904 32.1318 42.1853 32.2021 42.517C32.2723 42.8487 32.3225 43.2458 32.3526 43.7081C32.3725 44.0096 32.3875 44.2409 32.3977 44.4016C32.4077 44.5624 32.4227 44.6932 32.4428 44.7936C32.4628 44.8841 32.4829 44.9595 32.503 45.0198C32.5331 45.0801 32.5732 45.1504 32.6234 45.2309H30.9684C30.9383 45.1606 30.9131 45.1052 30.8932 45.065C30.8831 45.0249 30.868 44.9393 30.8481 44.8087C30.828 44.5575 30.8129 44.3664 30.8029 44.2358C30.7928 44.1052 30.7777 43.9544 30.7578 43.7835C30.7076 43.2609 30.6122 42.8186 30.472 42.4567C30.3315 42.0949 30.1259 41.8084 29.8551 41.5973C29.5943 41.3763 29.2582 41.2204 28.8471 41.1299C28.4358 41.0295 27.9343 40.9792 27.3426 40.9792H25.7479V45.2309ZM28.6064 39.6976C29.0777 39.6976 29.4438 39.6726 29.7047 39.6223C29.9755 39.5719 30.1861 39.4866 30.3365 39.3659C30.7076 39.0644 30.8932 38.6323 30.8932 38.0693C30.8932 37.7476 30.833 37.4612 30.7127 37.2099C30.6023 36.9587 30.4368 36.7727 30.2162 36.6521C30.0757 36.5818 29.8852 36.5315 29.6445 36.5013C29.4137 36.4712 29.0677 36.4561 28.6064 36.4561H25.7479V39.6976H28.6064ZM41.4874 45.2309H39.5767L35.2739 35.1746H37.1244L40.5546 43.7232L44.0299 35.1746H45.7601L41.4874 45.2309ZM49.1617 35.1746H50.7715V45.2309H49.1617V35.1746ZM62.687 45.2309H59.5727C59.1014 45.2309 58.6802 45.2107 58.3089 45.1706C57.9478 45.1304 57.6169 45.065 57.316 44.9746C57.0252 44.8841 56.7644 44.7686 56.5336 44.6278C56.3031 44.477 56.0874 44.2961 55.8867 44.085C55.4856 43.6629 55.1696 43.1201 54.9389 42.4567C54.7183 41.7833 54.6079 41.0546 54.6079 40.2706C54.6079 39.7981 54.6482 39.3409 54.7283 38.8986C54.8185 38.4562 54.9389 38.0443 55.0893 37.6623C55.25 37.2802 55.4405 36.9386 55.661 36.637C55.8918 36.3255 56.1425 36.0692 56.4133 35.8681C56.7544 35.6269 57.1706 35.451 57.662 35.3404C58.1536 35.2298 58.7603 35.1746 59.4824 35.1746H62.687V36.4561H59.5727C59.2218 36.4561 58.9158 36.4712 58.655 36.5013C58.4043 36.5215 58.1837 36.5667 57.993 36.637C57.8025 36.6973 57.637 36.7778 57.4965 36.8783C57.3562 36.9787 57.2257 37.1044 57.1053 37.2552C56.8547 37.5769 56.6591 38.009 56.5186 38.5518C56.3783 39.0946 56.308 39.6826 56.308 40.3158C56.308 40.949 56.3883 41.512 56.5487 42.0044C56.7093 42.4969 56.935 42.9039 57.2257 43.2256C57.3562 43.3664 57.4916 43.4819 57.6319 43.5724C57.7824 43.6629 57.9529 43.7383 58.1434 43.7986C58.3441 43.8489 58.5698 43.889 58.8204 43.9192C59.0713 43.9393 59.3671 43.9493 59.7081 43.9493H62.687V45.2309ZM73.737 36.4561H70.8183C70.4572 36.4561 70.1413 36.4763 69.8705 36.5164C69.5997 36.5565 69.3589 36.627 69.1483 36.7275C68.9477 36.8179 68.7722 36.9386 68.6217 37.0893C68.4713 37.2401 68.3308 37.4261 68.2005 37.6472C68.1202 37.7778 68.0549 37.9086 68.0049 38.0392C67.9547 38.1598 67.9096 38.2904 67.8695 38.4312C67.8394 38.572 67.8142 38.7327 67.7943 38.9136C67.7742 39.0946 67.7591 39.3005 67.7492 39.5318H73.737V40.8133H67.7341C67.7441 41.5672 67.9045 42.2206 68.2155 42.7733C68.4662 43.2055 68.7771 43.5121 69.1483 43.693C69.5293 43.864 70.0559 43.9493 70.728 43.9493H73.737V45.2309H70.4422C70.0008 45.2309 69.6046 45.2058 69.2536 45.1555C68.9025 45.1052 68.5866 45.0249 68.3058 44.9143C68.035 44.8036 67.7841 44.663 67.5536 44.4921C67.3328 44.3112 67.1272 44.0901 66.9367 43.8287C66.5956 43.3764 66.35 42.884 66.1995 42.3512C66.0491 41.8084 65.9739 41.1601 65.9739 40.4063C65.9739 38.3658 66.5606 36.8833 67.7341 35.9586C68.085 35.6872 68.5114 35.4912 69.0129 35.3706C69.5244 35.24 70.1563 35.1746 70.9086 35.1746H73.737V36.4561ZM77.5839 43.9493H81.9168C82.298 43.9493 82.5989 43.9292 82.8195 43.889C83.0401 43.8489 83.2308 43.7784 83.3912 43.6779C83.8125 43.4267 84.0231 43.0046 84.0231 42.4115C84.0231 42.0295 83.9428 41.7129 83.7824 41.4616C83.6319 41.2002 83.4113 41.0244 83.1204 40.9339C82.9799 40.8938 82.7994 40.8686 82.5788 40.8586C82.3582 40.8384 82.0372 40.8284 81.6159 40.8284H80.7885C80.1566 40.8284 79.64 40.7883 79.2388 40.7078C78.8377 40.6273 78.5067 40.4967 78.2459 40.3158C77.9149 40.0947 77.6591 39.8032 77.4786 39.4413C77.308 39.0795 77.2228 38.6673 77.2228 38.205C77.2228 37.6321 77.3483 37.1195 77.599 36.6672C77.8598 36.2149 78.2158 35.8581 78.6671 35.5967C78.9479 35.4459 79.274 35.3404 79.6451 35.2801C80.0263 35.2098 80.5176 35.1746 81.1194 35.1746H85.2417V36.4561H81.1194C80.6781 36.4561 80.3371 36.4812 80.0964 36.5315C79.8656 36.5716 79.6652 36.6421 79.4946 36.7426C79.324 36.8632 79.1837 37.0341 79.0734 37.2552C78.9731 37.4663 78.9229 37.7075 78.9229 37.9789C78.9229 38.4915 79.0884 38.8533 79.4194 39.0644C79.7603 39.2755 80.3271 39.381 81.1194 39.381H81.7212C82.1626 39.381 82.5387 39.391 82.8496 39.4112C83.1706 39.4313 83.4463 39.4664 83.677 39.5167C83.9178 39.5569 84.1184 39.6172 84.2788 39.6976C84.4494 39.7679 84.6048 39.8584 84.7452 39.969C85.0561 40.2304 85.2968 40.567 85.4674 40.9792C85.6379 41.3913 85.7231 41.8486 85.7231 42.3512C85.7231 42.9443 85.5977 43.4569 85.347 43.889C85.0963 44.3212 84.7353 44.6529 84.2638 44.8841C84.1233 44.9544 83.978 45.0147 83.8275 45.065C83.6771 45.1052 83.5016 45.1404 83.3009 45.1706C83.1104 45.1907 82.8848 45.2058 82.6239 45.2158C82.3732 45.2258 82.0723 45.2309 81.7212 45.2309H77.5839V43.9493ZM97.1077 35.1746V41.0244C97.1077 41.6576 97.1429 42.1401 97.213 42.4718C97.2834 42.8035 97.4037 43.0698 97.5741 43.2709C97.9854 43.7232 98.7075 43.9493 99.7405 43.9493H101.892V45.2309H99.4246C98.6524 45.2309 98.0254 45.1555 97.544 45.0047C97.0626 44.844 96.6515 44.5775 96.3103 44.2056C96.1599 44.0449 96.0296 43.8739 95.9192 43.693C95.8189 43.5021 95.7386 43.291 95.6785 43.0598C95.6183 42.8186 95.5731 42.5472 95.5431 42.2456C95.513 41.9441 95.4979 41.6024 95.4979 41.2204V35.1746H97.1077ZM102.993 36.4561V35.1746H111.538V36.4561H108.078V45.2309H106.468V36.4561H102.993ZM118.793 35.1746C119.315 35.1746 119.766 35.1947 120.147 35.2349C120.528 35.265 120.859 35.3253 121.14 35.4158C121.431 35.4963 121.687 35.6118 121.907 35.7626C122.128 35.9033 122.344 36.0843 122.554 36.3053C122.995 36.7676 123.316 37.3055 123.517 37.9186C123.718 38.5216 123.818 39.2504 123.818 40.1047C123.818 41.2506 123.657 42.2104 123.337 42.9844C123.016 43.7482 122.539 44.3163 121.907 44.6881C121.727 44.7987 121.546 44.8892 121.366 44.9595C121.185 45.0298 120.985 45.0852 120.764 45.1253C120.543 45.1655 120.287 45.1956 119.997 45.2158C119.706 45.2258 119.355 45.2309 118.944 45.2309H114.942V35.1746H118.793ZM116.551 43.9493H119.109C119.721 43.9493 120.217 43.8689 120.598 43.7081C120.99 43.5372 121.3 43.2658 121.531 42.8939C121.732 42.6024 121.877 42.2406 121.967 41.8084C122.068 41.3661 122.118 40.8736 122.118 40.3309C122.118 39.6775 122.048 39.0895 121.907 38.5669C121.777 38.0443 121.591 37.6221 121.351 37.3004C121.12 36.9989 120.824 36.7827 120.463 36.6521C120.102 36.5215 119.615 36.4561 119.004 36.4561H116.551V43.9493Z" fill="#050505"/>
</svg>
